<svg height="300" viewBox="0 0 512 512" width="300" xmlns="http://www.w3.org/2000/svg" version="1.1" xmlns:xlink="http://www.w3.org/1999/xlink" xmlns:svgjs="http://svgjs.dev/svgjs"><g width="100%" height="100%" transform="matrix(1,0,0,1,0,0)"><g id="Layer_2" data-name="Layer 2"><g id="_05.swimming" data-name="05.swimming"><path d="m256 0c-141.38 0-256 114.62-256 256s114.62 256 256 256 256-114.62 256-256-114.62-256-256-256zm106.92 223.93c-.17 18-15.08 32.65-33.34 32.75a33.26 33.26 0 1 1 .16-66.52 33.58 33.58 0 0 1 33.18 33.77zm-202 36.71c14.31-8.61 28.86-16.9 43.75-24.45 12.5-6.33 25.64-11.43 39.77-17.64-8.95-13.75-17.35-26.91-26-39.91-8.4-12.6-5-22.38 9.6-26.38q31.86-8.74 63.77-17.31c11.05-3 18.43.59 20.9 9.77 2.2 8.19-2.72 15.51-13 18.8-12.64 4-25.35 7.82-38 11.77-2.43.76-4.78 1.8-7.74 2.92 8.26 13.75 17.19 26.11 23.48 39.7a432.73 432.73 0 0 1 19.61 52c3.82 12.15-6.63 21.17-19.18 17.89-9.24-2.41-18.4-5.2-27.75-7.05-24.7-4.89-49.12-3.91-73 4.78-1.24.46-2.48.94-3.76 1.29-8.29 2.25-15.24-.32-18.48-6.8-3.42-6.87-1.55-14.83 6.01-19.38zm226.92 93.72c-19.31 15.8-41.39 23.71-65.51 23.71-22 0-45.78-6.6-70.67-19.82-20.29-10.77-50-5.54-71.43.74a261.36 261.36 0 0 0 -43.47 17.25 11.39 11.39 0 1 1 -10.68-20.13 279.83 279.83 0 0 1 47.73-19c37-10.88 66.8-10.54 88.54 1 44 23.36 81.37 22.89 111.05-1.4a11.4 11.4 0 0 1 14.44 17.64zm0-40.15c-19.31 15.8-41.39 23.71-65.51 23.71-22 0-45.78-6.6-70.67-19.82-20.29-10.77-50-5.54-71.43.74a261.36 261.36 0 0 0 -43.47 17.25 11.39 11.39 0 1 1 -10.7-20.09 279.83 279.83 0 0 1 47.73-19c37-10.88 66.8-10.54 88.54 1 44 23.36 81.37 22.89 111.05-1.4a11.4 11.4 0 0 1 14.44 17.64z" fill="#77894d" fill-opacity="1" data-original-color="#000000ff" stroke="none" stroke-opacity="1"/></g></g></g></svg>