<svg clip-rule="evenodd" fill-rule="evenodd" height="300" image-rendering="optimizeQuality" shape-rendering="geometricPrecision" text-rendering="geometricPrecision" viewBox="0 0 512 512" width="300" xmlns="http://www.w3.org/2000/svg" xmlns:xodm="http://www.corel.com/coreldraw/odm/2003" version="1.1" xmlns:xlink="http://www.w3.org/1999/xlink" xmlns:svgjs="http://svgjs.dev/svgjs"><g width="100%" height="100%" transform="matrix(1,0,0,1,0,0)"><g id="Layer_x0020_1"><path d="m128.46 281.57c-70.82 0-128.44-57.62-128.44-128.45 0-70.82 57.62-128.45 128.44-128.45 70.83 0 128.45 57.63 128.45 128.45 0 70.83-57.62 128.45-128.45 128.45zm0-33.79c-52.19 0-94.65-42.47-94.65-94.66s42.46-94.65 94.65-94.65c52.2 0 94.66 42.46 94.66 94.65s-42.47 94.66-94.66 94.66zm0-177.31c-45.57 0-82.65 37.08-82.65 82.65 0 45.58 37.08 82.66 82.65 82.66 45.58 0 82.66-37.08 82.66-82.66 0-45.57-37.08-82.65-82.66-82.65z" fill="#77894d" fill-opacity="1" data-original-color="#000000ff" stroke="none" stroke-opacity="1"/><path d="m256.42 385.69h-17.86v-65.86h17.86z" fill="#77894d" fill-opacity="1" data-original-color="#000000ff" stroke="none" stroke-opacity="1"/><path d="m204.7 487.32h-152.48c-12.05 0-21.85-9.8-21.85-21.85v-211.94c25.33 24.76 59.96 40.04 98.09 40.04 38.14 0 72.77-15.28 98.1-40.04v211.94c0 12.05-9.81 21.85-21.86 21.85zm-55.56-19.08h-41.35c-13.73 0-24.89-11.17-24.89-24.9v-55.41-55.43c0-13.72 11.16-24.89 24.89-24.89h41.35c13.72 0 24.89 11.17 24.89 24.89v55.43 55.41c0 13.73-11.17 24.9-24.89 24.9zm-20.68-22.89c-3.31 0-6-2.69-6-6v-28.54c0-3.31 2.69-6 6-6 3.32 0 6 2.69 6 6v28.54c0 3.31-2.68 6-6 6zm0-72.75c-12.04 0-21.83-9.79-21.83-21.83s9.79-21.84 21.83-21.84 21.84 9.8 21.84 21.84-9.8 21.83-21.84 21.83zm0-31.67c-5.42 0-9.83 4.42-9.83 9.84s4.41 9.83 9.83 9.83c5.43 0 9.84-4.41 9.84-9.83s-4.41-9.84-9.84-9.84zm33.57 52.99h-67.14v49.42c0 7.11 5.79 12.9 12.9 12.9h41.35c7.11 0 12.89-5.79 12.89-12.9zm-67.14-11.99h67.14v-49.43c0-7.1-5.78-12.89-12.89-12.89h-41.35c-7.11 0-12.9 5.79-12.9 12.89z" fill="#77894d" fill-opacity="1" data-original-color="#000000ff" stroke="none" stroke-opacity="1"/><path d="m495.57 440.69h-210.74c-9.05 0-16.41-7.36-16.41-16.4v-143.06c0-9.05 7.36-16.41 16.41-16.41h210.74c9.05 0 16.41 7.36 16.41 16.41v143.06c0 9.04-7.36 16.4-16.41 16.4zm-16.29-26.7h-178.15c-3.31 0-6-2.69-6-6v-110.46c0-3.32 2.69-6 6-6h178.15c3.31 0 6 2.68 6 6v110.46c0 3.31-2.69 6-6 6zm-106.56-29.17c-.92 0-1.84-.21-2.69-.64-2.03-1.02-3.31-3.09-3.31-5.36v-52.12c0-2.27 1.28-4.35 3.31-5.36 2.03-1.02 4.46-.81 6.28.55l34.96 26.06c1.52 1.13 2.42 2.91 2.42 4.81 0 1.89-.9 3.68-2.42 4.81l-34.96 26.06c-1.06.78-2.32 1.19-3.59 1.19zm6-46.17v28.21l18.93-14.1zm-71.59 63.34h166.15v-98.46h-166.15z" fill="#77894d" fill-opacity="1" data-original-color="#000000ff" stroke="none" stroke-opacity="1"/></g></g></svg>